<svg height="512" viewBox="0 0 60 60" width="512" xmlns="http://www.w3.org/2000/svg"><g id="017---Maasdam"><path id="Shape" d="m40.211 58.938c.4605586-.099416.7892421-.5068337.789-.978v-14.96h16c1.6568542 0 3-1.3431458 3-3v-22c0-9.925-13.458-18-30-18s-30 8.075-30 18v24c0 12.935 21.352 21 40.211 16.938zm16.789-17.938h-16v-7c0-.414.592.662-9.195-15h26.195v4.346c-2.4871639-.8833324-5.2594911-.0376098-6.8300989 2.0835812s-1.5706078 5.0196466 0 7.1408376 4.342935 2.9669136 6.8300989 2.0835812v5.346c0 .5522847-.4477153 1-1 1zm1-8.544c-1.6806866.979412-3.822303.607727-5.0746826-.8807288-1.2523795-1.4884558-1.2523795-3.6620866 0-5.1505424 1.2523796-1.4884558 3.393996-1.8601408 5.0746826-.8807288zm-28-30.456c14.851 0 27.033 6.642 27.94 15h-27.94c-.3635259-.0000009-.6984185.1972759-.8746446.515231-.176226.317955-.1660241.7064999.0266446 1.014769l9.2 14.726c-17.575 3.172-36.352-4.256-36.352-15.256 0-8.822 12.561-16 28-16zm-28 22.451c4.333 6.749 15.246 11.549 28 11.549 3.0191602.0011145 6.031966-.2767332 9-.83v21.975c-17.552 3.441-37-3.906-37-15.145z"/><path id="Shape" d="m29 6.01s.672-.01 1-.01c.5522847 0 1-.44771525 1-1s-.4477153-1-1-1c-.342 0-.6823333.00333333-1.021.01-.5522847.005799-.995299.45821526-.9895 1.0105s.4582153.99529898 1.0105.9895z"/><path id="Shape" d="m6 18c0-5.631 8.024-10.569 19.079-11.743.5492472-.05826604.947266-.55075282.889-1.1s-.5507528-.94726604-1.1-.889c-12.287 1.305-20.868 6.951-20.868 13.732 0 .5522847.44771525 1 1 1s1-.4477153 1-1z"/><path id="Shape" d="m47 25c0-2.209139-1.790861-4-4-4s-4 1.790861-4 4 1.790861 4 4 4 4-1.790861 4-4zm-4 2c-1.1045695 0-2-.8954305-2-2s.8954305-2 2-2 2 .8954305 2 2-.8954305 2-2 2z"/><path id="Shape" d="m47 32c-1.2133867 0-2.3072956.7309265-2.7716386 1.8519497s-.2076757 2.4113767.6503183 3.2693706c.8579939.857994 2.1483474 1.1146613 3.2693706.6503183s1.8519497-1.5582519 1.8519497-2.7716386c0-1.6568542-1.3431458-3-3-3zm0 4c-.5522847 0-1-.4477153-1-1s.4477153-1 1-1 1 .4477153 1 1-.4477153 1-1 1z"/></g></svg>