<?xml version="1.0" encoding="iso-8859-1"?>
<!-- Generator: Adobe Illustrator 19.0.0, SVG Export Plug-In . SVG Version: 6.00 Build 0)  -->
<svg version="1.1" id="Capa_1" xmlns="http://www.w3.org/2000/svg" xmlns:xlink="http://www.w3.org/1999/xlink" x="0px" y="0px"
	 viewBox="0 0 512 512" style="enable-background:new 0 0 512 512;" xml:space="preserve">
<g>
	<g>
		<rect x="253.388" y="282.122" width="47.02" height="15.673"/>
	</g>
</g>
<g>
	<g>
		<rect x="253.388" y="308.245" width="47.02" height="15.674"/>
	</g>
</g>
<g>
	<g>
		<rect x="284.735" y="334.367" width="15.673" height="15.673"/>
	</g>
</g>
<g>
	<g>
		<rect x="184.947" y="308.245" width="24.033" height="15.674"/>
	</g>
</g>
<g>
	<g>
		<rect x="119.118" y="263.837" width="15.674" height="15.673"/>
	</g>
</g>
<g>
	<g>
		<path d="M221.518,164.571h-31.347c-10.082,0-18.286,8.203-18.286,18.286v31.347c0,10.082,8.203,18.286,18.286,18.286h31.347
			c10.082,0,18.286-8.203,18.286-18.286v-31.347C239.804,172.775,231.601,164.571,221.518,164.571z M224.131,214.204
			c0,1.441-1.171,2.612-2.612,2.612h-31.347c-1.441,0-2.612-1.171-2.612-2.612v-31.347c0-1.441,1.171-2.612,2.612-2.612h31.347
			c1.441,0,2.612,1.171,2.612,2.612V214.204z"/>
	</g>
</g>
<g>
	<g>
		<path d="M104.49,336.98c-12.963,0-23.51,10.547-23.51,23.51S91.527,384,104.49,384S128,373.453,128,360.49
			S117.453,336.98,104.49,336.98z M104.49,368.327c-4.322,0-7.837-3.515-7.837-7.837c0-4.322,3.515-7.837,7.837-7.837
			s7.837,3.515,7.837,7.837C112.327,364.811,108.812,368.327,104.49,368.327z"/>
	</g>
</g>
<g>
	<g>
		<path d="M410.122,336.98c-12.963,0-23.51,10.547-23.51,23.51S397.159,384,410.122,384s23.51-10.547,23.51-23.51
			S423.085,336.98,410.122,336.98z M410.122,368.327c-4.322,0-7.837-3.515-7.837-7.837c0-4.322,3.515-7.837,7.837-7.837
			c4.322,0,7.837,3.515,7.837,7.837C417.959,364.811,414.444,368.327,410.122,368.327z"/>
	</g>
</g>
<g>
	<g>
		<path d="M105.083,157.257l-26.742,90.906h64.287v-90.906H105.083z M126.955,232.49H99.29l17.52-59.559h10.145V232.49z"/>
	</g>
</g>
<g>
	<g>
		<path d="M472.816,101.878H107.102c-21.606,0-39.184,17.577-39.184,39.184v7.837h13.037l-27.739,94.31L0,288.975v89.801h58.363
			c7.298,18.341,25.216,31.347,46.127,31.347s38.829-13.006,46.127-31.347h58.363v-15.673h-14.156l-7.124-13.061h34.342v28.735
			h20.898v28.735h15.673v-28.735h36.571v28.735h15.673v-28.735h20.898v-28.735h29.851c-0.725,3.371-1.116,6.865-1.116,10.449
			c0,0.877,0.024,1.747,0.069,2.612h-15.742v15.673h19.179c7.298,18.341,25.217,31.347,46.127,31.347
			c20.911,0,38.829-13.006,46.127-31.347H512V148.898v-7.837C512,119.455,494.423,101.878,472.816,101.878z M107.102,117.551
			h365.714c10.217,0,18.932,6.552,22.167,15.673H306.29l-34.747,57.911V204.8c0,14.609,11.374,26.603,25.731,27.612v20.975h-36.571
			v-104.49h28.735v-15.673H85.566h-0.631C88.17,124.103,96.885,117.551,107.102,117.551z M443.712,185.469l-13.166-36.571h11.581
			l21.943,36.571H443.712z M470.073,201.143v3.657c0,6.626-5.391,12.016-12.016,12.016c-6.626,0-12.016-5.391-12.016-12.016v-3.657
			H470.073z M406.335,201.143h24.033v3.657c0,6.626-5.391,12.016-12.016,12.016c-6.626,0-12.016-5.391-12.016-12.016V201.143z
			 M405.451,185.469l-4.389-36.571h12.826l13.166,36.571H405.451z M390.661,201.143v3.657c0,6.626-5.391,12.016-12.016,12.016
			s-12.016-5.391-12.016-12.016v-3.657H390.661z M367.624,185.469l4.389-36.571h13.263l4.389,36.571H367.624z M330.236,185.469
			l13.166-36.571h12.827l-4.39,36.571H330.236z M350.955,201.143v3.657c0,6.626-5.391,12.016-12.016,12.016
			c-6.626,0-12.016-5.391-12.016-12.016v-3.657H350.955z M293.22,185.469l21.943-36.571h11.581l-13.166,36.571H293.22z
			 M311.249,201.143v3.657c0,6.626-5.391,12.016-12.016,12.016c-6.626,0-12.016-5.391-12.016-12.016v-3.657H311.249z
			 M54.926,363.102H15.673v-13.061h40.3c-0.725,3.371-1.116,6.865-1.116,10.449C54.857,361.366,54.881,362.237,54.926,363.102z
			 M104.49,394.449c-18.726,0-33.959-15.234-33.959-33.959c0-18.726,15.234-33.959,33.959-33.959s33.959,15.234,33.959,33.959
			C138.449,379.215,123.215,394.449,104.49,394.449z M146.666,334.367c-8.765-14.099-24.389-23.51-42.176-23.51
			s-33.412,9.411-42.176,23.51h-46.64v-7.837h18.286v-15.674H15.673v-14.689l51.273-44.095l30.345-103.175h53.696v166.569
			l10.309,18.9H146.666z M154.053,363.102c0.045-0.865,0.069-1.736,0.069-2.612c0-3.584-0.391-7.078-1.116-10.449h16.84
			l7.124,13.061H154.053z M222.041,282.122h-37.094v15.673h37.094v36.571H179.15l-12.489-22.896V148.898h78.367v104.49h-22.988
			V282.122z M316.082,363.102h-78.367v-94.041h78.367V363.102z M410.122,394.449c-18.726,0-33.959-15.234-33.959-33.959
			c0-18.726,15.234-33.959,33.959-33.959s33.959,15.234,33.959,33.959C444.082,379.215,428.848,394.449,410.122,394.449z
			 M496.327,363.102h-36.64c0.045-0.865,0.069-1.736,0.069-2.612c0-3.584-0.391-7.078-1.116-10.449h37.687V363.102z
			 M496.327,310.857h-18.286v15.674h18.286v7.837h-44.028c-8.765-14.099-24.389-23.51-42.176-23.51s-33.412,9.411-42.176,23.51
			h-36.191v-28.735H477.91v-15.673h-84.94c0.59-1.664,0.999-3.414,1.2-5.224h7.985v-15.673h-7.837v-10.449h-47.02v23.51
			c0,2.747,0.477,5.384,1.348,7.837h-16.891v-36.571h-18.808V228.84c2.265-1.298,4.331-2.905,6.139-4.766
			c5.035,5.185,12.072,8.416,19.853,8.416c7.781,0,14.818-3.231,19.853-8.416c5.035,5.185,12.072,8.416,19.853,8.416
			s14.818-3.231,19.853-8.416c5.035,5.185,12.072,8.416,19.853,8.416c7.781,0,14.818-3.231,19.853-8.416
			c1.808,1.861,3.873,3.468,6.139,4.766v48.058h15.673v-44.485c14.357-1.009,25.731-13.004,25.731-27.612v-13.664l-25.343-42.238
			h35.923V310.857z M362.971,282.122v-7.837h15.673v7.837c0,4.322-3.515,7.837-7.837,7.837
			C366.486,289.959,362.971,286.444,362.971,282.122z"/>
	</g>
</g>
<g>
</g>
<g>
</g>
<g>
</g>
<g>
</g>
<g>
</g>
<g>
</g>
<g>
</g>
<g>
</g>
<g>
</g>
<g>
</g>
<g>
</g>
<g>
</g>
<g>
</g>
<g>
</g>
<g>
</g>
</svg>
